<?xml version="1.0" standalone="no"?>
<!DOCTYPE svg PUBLIC "-//W3C//DTD SVG 20010904//EN"
 "http://www.w3.org/TR/2001/REC-SVG-20010904/DTD/svg10.dtd">
<svg version="1.0" xmlns="http://www.w3.org/2000/svg"
 width="1500.000000pt" height="1500.000000pt" viewBox="0 0 1500.000000 1500.000000"
 preserveAspectRatio="xMidYMid meet">
<metadata>
Created by potrace 1.11, written by Peter Selinger 2001-2013
</metadata>
<g transform="translate(0.000000,1500.000000) scale(0.100000,-0.100000)"
fill="#000000" stroke="none">
<path d="M7165 14994 c-376 -23 -636 -51 -921 -99 -1261 -212 -2444 -744
-3444 -1549 -396 -319 -809 -730 -1126 -1121 -817 -1008 -1356 -2198 -1569
-3469 -74 -442 -99 -758 -99 -1256 0 -498 25 -814 99 -1256 212 -1261 744
-2444 1549 -3444 319 -396 730 -809 1121 -1126 1008 -817 2198 -1356 3469
-1569 442 -74 758 -99 1256 -99 498 0 814 25 1256 99 1271 213 2461 752 3469
1569 391 317 802 730 1121 1126 804 999 1338 2185 1549 3444 74 442 99 758 99
1256 0 498 -25 814 -99 1256 -230 1367 -828 2625 -1754 3689 -146 168 -479
502 -651 655 -878 779 -1883 1326 -3000 1634 -441 122 -914 203 -1425 246
-129 11 -785 21 -900 14z m699 -1549 c329 -44 644 -139 930 -282 122 -61 2742
-1542 2851 -1611 658 -420 1137 -1123 1295 -1902 62 -303 61 -270 58 -2190 -4
-1898 0 -1769 -59 -2060 -85 -424 -283 -855 -556 -1212 -166 -217 -451 -486
-679 -638 -147 -99 -2766 -1641 -2903 -1710 -298 -148 -631 -248 -976 -291
-129 -17 -521 -17 -650 0 -345 43 -678 143 -976 291 -137 69 -2756 1611 -2903
1710 -228 152 -513 421 -679 638 -273 357 -471 788 -556 1212 -59 291 -55 162
-59 2060 -2 1520 -1 1764 13 1895 75 733 412 1403 954 1898 105 96 276 229
386 299 109 69 2729 1550 2851 1611 339 170 686 263 1114 301 92 8 429 -4 544
-19z"/>
<path d="M7375 12413 c-247 -16 -514 -86 -740 -192 -124 -59 -551 -308 -624
-364 -256 -198 -344 -584 -200 -886 134 -282 403 -480 655 -481 42 0 98 11
175 34 528 159 1006 185 1511 81 770 -158 1471 -637 1929 -1317 184 -273 287
-479 404 -810 70 -198 110 -275 195 -381 116 -143 278 -246 437 -277 99 -20
281 -8 378 23 239 78 433 280 506 527 20 67 23 103 27 334 4 287 -5 425 -44
616 -61 306 -202 612 -403 875 -110 144 -325 345 -486 452 -133 89 -2594 1519
-2708 1573 -309 148 -665 216 -1012 193z"/>
<path d="M4385 10815 c-105 -19 -160 -44 -359 -160 -233 -136 -345 -216 -473
-339 -294 -280 -466 -632 -530 -1081 -17 -122 -18 -223 -15 -1725 1 -1051 6
-1627 13 -1690 40 -356 171 -693 387 -1000 89 -126 346 -384 472 -472 106 -75
618 -375 695 -408 122 -53 311 -65 447 -31 149 38 297 132 387 244 64 81 166
265 191 344 47 152 46 334 -2 492 -31 104 -105 242 -171 325 -34 41 -101 124
-150 183 -361 444 -614 967 -732 1516 -189 880 7 1787 545 2522 149 204 192
315 192 495 0 167 -46 308 -149 461 -173 255 -457 378 -748 324z"/>
<path d="M7240 9665 c-523 -72 -996 -389 -1377 -925 -250 -351 -383 -738 -400
-1165 -19 -486 138 -980 436 -1370 62 -81 240 -264 326 -335 242 -198 677
-387 1040 -451 154 -27 449 -33 575 -11 513 90 922 361 1290 853 242 323 391
673 444 1039 78 546 -53 1072 -372 1499 -72 97 -235 265 -332 344 -190 153
-498 329 -724 412 -292 107 -627 148 -906 110z m470 -1310 c78 -21 210 -81
277 -126 63 -43 175 -150 228 -220 222 -286 232 -648 26 -966 -131 -202 -303
-331 -528 -395 -105 -30 -323 -32 -426 -4 -167 44 -303 124 -424 248 -178 183
-263 399 -250 638 23 415 333 767 739 839 77 14 281 6 358 -14z"/>
<path d="M11115 7086 c-143 -28 -263 -93 -382 -209 -121 -117 -183 -223 -258
-442 -350 -1017 -1190 -1787 -2216 -2029 -221 -53 -375 -69 -634 -69 -210 0
-262 3 -414 26 -281 43 -457 34 -633 -34 -177 -69 -310 -189 -422 -382 -124
-214 -159 -376 -122 -571 43 -224 171 -397 389 -524 292 -171 556 -264 857
-302 109 -13 381 -13 490 1 214 26 440 91 625 178 105 50 2598 1499 2722 1583
227 153 454 391 603 633 66 107 164 317 204 439 42 128 80 303 95 438 16 145
14 558 -3 639 -63 294 -283 530 -568 609 -95 26 -243 34 -333 16z"/>
</g>
</svg>
