<svg xmlns="http://www.w3.org/2000/svg" width="30" height="29.933333333333323" style="">
  <rect id="backgroundrect" width="100%" height="100%" x="0" y="0" fill="none" stroke="none" class="" style=""/>
  <style>.st0{fill:#0468b1}.st1{fill:#fff}</style>
  <g class="currentLayer" style="">
    <title>Layer 1</title>
    <path class="st0" d="M0.0666666701436052,0.03333410769700885 h14.5 v14.5 H0.0666666701436052 z" id="svg_1"/>
    <path class="st1"
          d="M3.7666666701436045,2.333334107697013 v5.7 c0,3 1.5,4.1 3.5,4.1 c2.1,0 3.6,-1.2 3.6,-4.2 v-5.7 H9.666666670143604 v5.8 c0,2.1 -1,3.1 -2.4,3.1 c-1.3,0 -2.3,-0.9 -2.3,-3.1 v-5.7 H3.7666666701436045 z"
          id="svg_2"/>
    <path class="st0" d="M15.466666670143605,0.03333410769700885 h14.5 v14.5 H15.466666670143605 z" id="svg_3"/>
    <path class="st1"
          d="M20.266666670143604,12.13333410769701 v-4.1 c0,-1.6 0,-2.8 -0.1,-4 c0.5,1.1 1.1,2.2 1.8,3.2 L25.066666670143604,12.13333410769701 h1.3 v-9.6 h-1.1 v4.1 c0,1.5 0,2.7 0.2,4 c-0.4,-1 -1,-2 -1.7000000000000002,-3.2 l-3.1,-4.9 h-1.4 v9.7 l1,-0.1 z"
          id="svg_4"/>
    <path class="st0" d="M15.466666670143605,15.433334107697007 h14.5 v14.5 H15.466666670143605 z" id="svg_5"/>
    <path class="st1"
          d="M25.166666670143606,18.53333410769701 c-0.6000000000000006,-0.5 -1.5,-0.8 -2.8,-0.8 c-1,0 -1.8,0.1 -2.4,0.2 v9.6 h1.2 v-3.9 c0.3000000000000003,0.1 0.6000000000000006,0.1 1,0.1 c1.2,0 2.3,-0.4 2.9,-1.1 c0.5,-0.5 0.8,-1.2 0.8,-2.1 c0.2,-0.8 -0.1,-1.5 -0.7000000000000006,-2 "
          id="svg_6"/>
    <path class="st0"
          d="M22.366666670143605,22.73333410769701 c-0.4,0 -0.8,0 -1.1,-0.1 v-3.7 c0.2,0 0.6000000000000006,-0.1 1.2,-0.1 c1.4,0 2.3,0.6000000000000006 2.3,1.9 c0,1.3 -0.9,2 -2.4,2 M0.0666666701436052,15.433334107697007 h14.5 v14.5 H0.0666666701436052 z"
          id="svg_7"/>
    <path class="st1"
          d="M10.266666670143604,18.933334107697007 c-0.8,-0.8 -2.1,-1.2 -3.9,-1.2 c-1,0 -1.9,0.1 -2.7,0.2 v9.6 c0.6000000000000006,0.1 1.4,0.1 2.3,0.1 c1.9,0 3.4,-0.5 4.3,-1.4 c0.9,-0.9 1.4,-2.2 1.4,-3.7 c0,-1.7000000000000002 -0.5,-2.8 -1.4,-3.6 "
          id="svg_8"/>
  </g>
</svg>
